# xmcd CD database file
#
# Track frame offsets:
#	150
#	21943
#	42486
#	68691
#	97865
#	119257
#	141651
#	165480
#	200393
#	222909
#	243469
#	267080
#
# Disc length: 3856 seconds
#
# Revision: 0
# Processed by: cddbd v1.5.2PL0 Copyright (c) Steve Scherf et al.
# Submitted via: CDex 1.70beta2
#
DISCID=ab0f0e0c
DTITLE=Chet Baker - Seven Classic Albums - Vol.2 - CD4
DYEAR=1959
DGENRE=Jazz
TTITLE0=Almost Like Being In Love
TTITLE1=Thank Heaven For Little Girls
TTITLE2=I Talk To The Trees
TTITLE3=Show Me
TTITLE4=Lady Bird
TTITLE5=Cheryl Blues
TTITLE6=Tune Up
TTITLE7=Line For Lyons
TTITLE8=Pent-Up House
TTITLE9=Look For The Silver Lining
TTITLE10=Indian Summer
TTITLE11=My Old Flame
EXTD=YEAR: 1959
EXTT0=
EXTT1=
EXTT2=
EXTT3=
EXTT4=
EXTT5=
EXTT6=
EXTT7=
EXTT8=
EXTT9=
EXTT10=
EXTT11=
PLAYORDER=
